<?xml version="1.0" encoding="UTF-8" standalone="no"?>
<!DOCTYPE svg PUBLIC "-//W3C//DTD SVG 1.1//EN" "http://www.w3.org/Graphics/SVG/1.1/DTD/svg11.dtd">
<svg width="20px" height="20px" viewBox="0 0 11 16" version="1.1" xmlns="http://www.w3.org/2000/svg" xmlns:xlink="http://www.w3.org/1999/xlink" xml:space="preserve" xmlns:serif="http://www.serif.com/" style="fill-rule:evenodd;clip-rule:evenodd;stroke-linejoin:round;stroke-miterlimit:2;">
    <g transform="matrix(1,0,0,1,-122.875,-191.947)">
        <g transform="matrix(20.6986,0,0,20.6986,122.171,207.575)">
            <path d="M0.245,0.018C0.203,0.018 0.166,0.011 0.134,-0.004C0.102,-0.019 0.077,-0.039 0.06,-0.066C0.043,-0.092 0.034,-0.122 0.034,-0.157C0.034,-0.186 0.04,-0.213 0.053,-0.237C0.065,-0.261 0.082,-0.28 0.102,-0.294C0.124,-0.308 0.147,-0.315 0.172,-0.315C0.195,-0.315 0.215,-0.309 0.231,-0.298C0.247,-0.286 0.257,-0.27 0.261,-0.249C0.226,-0.249 0.199,-0.24 0.178,-0.222C0.157,-0.203 0.147,-0.178 0.147,-0.147C0.147,-0.118 0.156,-0.095 0.173,-0.078C0.19,-0.061 0.213,-0.052 0.242,-0.052C0.277,-0.052 0.307,-0.064 0.33,-0.087C0.353,-0.111 0.364,-0.141 0.364,-0.177C0.364,-0.208 0.355,-0.238 0.338,-0.266C0.321,-0.294 0.295,-0.328 0.26,-0.368C0.224,-0.409 0.197,-0.445 0.179,-0.474C0.16,-0.504 0.151,-0.537 0.151,-0.572C0.151,-0.607 0.161,-0.638 0.18,-0.666C0.199,-0.693 0.226,-0.715 0.26,-0.731C0.294,-0.747 0.332,-0.755 0.375,-0.755C0.429,-0.755 0.472,-0.742 0.504,-0.717C0.537,-0.692 0.553,-0.658 0.553,-0.615C0.553,-0.587 0.546,-0.564 0.532,-0.547C0.518,-0.53 0.5,-0.521 0.477,-0.521C0.452,-0.521 0.431,-0.531 0.416,-0.552C0.429,-0.561 0.439,-0.574 0.446,-0.589C0.453,-0.604 0.457,-0.62 0.457,-0.637C0.457,-0.658 0.451,-0.675 0.438,-0.688C0.425,-0.701 0.408,-0.707 0.386,-0.707C0.359,-0.707 0.338,-0.698 0.321,-0.679C0.304,-0.66 0.295,-0.635 0.295,-0.606C0.295,-0.579 0.303,-0.555 0.318,-0.532C0.333,-0.508 0.357,-0.479 0.39,-0.443C0.417,-0.414 0.438,-0.39 0.455,-0.369C0.471,-0.348 0.485,-0.325 0.497,-0.298C0.508,-0.271 0.514,-0.241 0.514,-0.21C0.514,-0.167 0.502,-0.129 0.478,-0.094C0.455,-0.059 0.423,-0.032 0.382,-0.012C0.341,0.008 0.295,0.018 0.245,0.018Z" style="fill:white;fill-rule:nonzero;"/>
        </g>
    </g>
</svg>
