<svg xmlns="http://www.w3.org/2000/svg" xmlns:xlink="http://www.w3.org/1999/xlink" viewBox="0,0,256,256" width="24px" height="24px"><g fill="#ffffff" fill-rule="nonzero" stroke="none" stroke-width="1" stroke-linecap="butt" stroke-linejoin="miter" stroke-miterlimit="10" stroke-dasharray="" stroke-dashoffset="0" font-family="none" font-weight="none" font-size="none" text-anchor="none" style="mix-blend-mode: normal"><g transform="scale(10.66667,10.66667)"><path d="M21.582,6.186c-0.23,-0.86 -0.908,-1.538 -1.768,-1.768c-1.56,-0.418 -7.814,-0.418 -7.814,-0.418c0,0 -6.254,0 -7.814,0.418c-0.86,0.23 -1.538,0.908 -1.768,1.768c-0.418,1.56 -0.418,5.814 -0.418,5.814c0,0 0,4.254 0.418,5.814c0.23,0.86 0.908,1.538 1.768,1.768c1.56,0.418 7.814,0.418 7.814,0.418c0,0 6.254,0 7.814,-0.418c0.861,-0.23 1.538,-0.908 1.768,-1.768c0.418,-1.56 0.418,-5.814 0.418,-5.814c0,0 0,-4.254 -0.418,-5.814zM10,15.464v-6.928l6,3.464z"></path></g></g></svg>