<?xml version="1.0" encoding="UTF-8" standalone="no"?>
<!DOCTYPE svg PUBLIC "-//W3C//DTD SVG 1.1//EN" "http://www.w3.org/Graphics/SVG/1.1/DTD/svg11.dtd">
<svg width="100%" height="100%" viewBox="0 0 438 315" version="1.1" xmlns="http://www.w3.org/2000/svg" xmlns:xlink="http://www.w3.org/1999/xlink" xml:space="preserve" xmlns:serif="http://www.serif.com/" style="fill-rule:evenodd;clip-rule:evenodd;stroke-linecap:round;stroke-linejoin:round;stroke-miterlimit:1.5;">
    <g transform="matrix(1,0,0,1,-739.449,-382.857)">
        <g transform="matrix(1,0,0,1,100.249,-66.8027)">
            <path d="M645.7,685.044C793.144,677.672 812.141,459.888 783.23,456.23C742.846,451.12 688.083,728.523 756.514,748.758C802.876,762.467 832.588,624.111 805.314,624.604C769.561,625.25 760.849,762.776 808.435,757.285C847.726,752.752 846.202,633.101 847.273,626.711C848.565,618.998 830.529,749.31 882.342,752.765C934.155,756.219 920.65,593.124 878.499,591.186C841.315,589.476 827.422,698.624 863.128,703.758C898.008,708.774 886.054,564.099 917.963,563.477C949.871,562.856 951.588,664.628 951.588,664.628C951.588,664.628 933.455,566.681 974.094,568.659C1005.69,570.196 986.171,691.77 1069.76,690.649" style="fill:none;stroke:black;stroke-width:13px;"/>
        </g>
    </g>
</svg>
