<?xml version="1.0" encoding="utf-8"?>
<!-- Generator: Adobe Illustrator 26.4.1, SVG Export Plug-In . SVG Version: 6.00 Build 0)  -->
<svg version="1.1" id="Calque_1" xmlns="http://www.w3.org/2000/svg" xmlns:xlink="http://www.w3.org/1999/xlink" x="0px" y="0px"
	 viewBox="0 0 14.73 13.73" style="enable-background:new 0 0 14.73 13.73;" xml:space="preserve">
<style type="text/css">
	.st0{fill:#FFFFFF;stroke:#010202;}
	.st1{fill:#FFFFFF;}
	.st2{fill:#010202;}
</style>
<path class="st0" d="M9.32,6.21c0-1.08-0.88-1.96-1.96-1.96S5.41,5.13,5.41,6.21c0,1.08,0.88,1.96,1.96,1.96S9.32,7.29,9.32,6.21z"
	/>
<g>
	<path class="st1" d="M7.37,12.89c-1.21,0-2.37-0.38-3.35-1.09c0.29-1.61,1.7-2.8,3.35-2.8s3.05,1.19,3.35,2.8
		C9.73,12.51,8.58,12.89,7.37,12.89z"/>
	<path class="st2" d="M7.37,9.37c1.39,0,2.58,0.95,2.92,2.27c-0.87,0.58-1.87,0.88-2.92,0.88c-1.05,0-2.05-0.3-2.92-0.88
		C4.79,10.32,5.98,9.37,7.37,9.37 M7.37,8.62c-1.94,0-3.52,1.47-3.75,3.34c1.03,0.81,2.33,1.3,3.75,1.3c1.42,0,2.72-0.49,3.75-1.3
		C10.89,10.08,9.3,8.62,7.37,8.62L7.37,8.62z"/>
</g>
<g>
	<path class="st1" d="M2.95,11.88c-1.31-1.24-2.03-2.9-2.03-4.7c0-3.56,2.89-6.45,6.45-6.45s6.45,2.9,6.45,6.45
		c0,1.79-0.72,3.46-2.04,4.7l-0.49,0.47l-0.13-0.67c-0.28-1.43-1.37-2.6-2.78-2.98L7.46,8.44L8.3,8c0.68-0.35,1.1-1.04,1.1-1.79
		c0-1.12-0.91-2.03-2.03-2.03c-1.12,0-2.03,0.91-2.03,2.03c0,0.75,0.42,1.44,1.1,1.79l0.84,0.44L6.36,8.7
		c-1.41,0.39-2.5,1.56-2.78,2.98l-0.13,0.67L2.95,11.88z"/>
	<path class="st2" d="M7.37,1.11c3.36,0,6.08,2.72,6.08,6.08c0,1.75-0.74,3.31-1.92,4.42c-0.31-1.59-1.51-2.85-3.05-3.27
		c0.77-0.4,1.3-1.2,1.3-2.12c0-1.33-1.08-2.41-2.41-2.41S4.96,4.88,4.96,6.21c0,0.92,0.53,1.72,1.3,2.12
		c-1.55,0.42-2.74,1.69-3.05,3.27C2.03,10.5,1.29,8.93,1.29,7.19C1.29,3.83,4.01,1.11,7.37,1.11 M7.37,0.36
		c-3.76,0-6.83,3.06-6.83,6.83c0,1.9,0.76,3.66,2.15,4.97l0.99,0.93l0.26-1.33c0.25-1.29,1.24-2.35,2.51-2.69l0.91-0.25l0.91,0.25
		c1.28,0.35,2.26,1.41,2.51,2.69l0.26,1.33l0.99-0.93c1.39-1.31,2.15-3.07,2.15-4.97C14.19,3.42,11.13,0.36,7.37,0.36L7.37,0.36z
		 M7.37,8.07l-0.76-0.4c-0.55-0.29-0.9-0.85-0.9-1.46c0-0.91,0.74-1.66,1.66-1.66c0.91,0,1.66,0.74,1.66,1.66
		c0,0.61-0.34,1.17-0.9,1.46L7.37,8.07L7.37,8.07z"/>
</g>
</svg>
